<?xml version="1.0" encoding="utf-8"?>
<!-- Generator: Adobe Illustrator 27.4.1, SVG Export Plug-In . SVG Version: 6.00 Build 0)  -->
<svg version="1.1" id="Layer_1" xmlns="http://www.w3.org/2000/svg" xmlns:xlink="http://www.w3.org/1999/xlink" x="0px" y="0px"
	 viewBox="0 0 576 216" style="enable-background:new 0 0 576 216;" xml:space="preserve">
<style type="text/css">
	.st0{fill:#FFFFFF;}
</style>
<path class="st0" d="M178.5,64.2c-0.7-0.6-1.3-1.2-2-1.7c-1.6-1.3-3.5-1.9-5.6-1.9c-3.4,0-6,1.4-8,4.1c-0.2,0.3-0.4,0.4-0.7,0.4
	c-3.1,0.2-5.6,1.5-7.4,4c-1,1.3-1.4,2.8-1.6,4.5c0,0.2-0.2,0.5-0.4,0.6c-1.3,0.8-2.2,1.9-2.7,3.3c-0.2,0.5-0.4,0.8-0.9,0.9
	c-2.3,1-3.9,2.7-4.9,4.9c-0.6,1.3-0.8,2.6-0.6,4c0.1,1.1,0.3,2.1,0.9,3.1c0.1,0.1,0,0.3-0.1,0.4s-0.2,0.2-0.3,0.3
	c-1,1.6-1.6,3.3-1.7,5.2c-0.1,2.7,0.7,5.1,2.6,7.1c0.2,0.2,0.3,0.4,0.2,0.8c-0.2,0.6-0.3,1.3-0.4,1.9c-0.2,2.7,0.5,5.2,2.3,7.3
	c1.7,1.9,3.8,3.1,6.2,3.6c0.2,0,0.3,0.2,0.4,0.3c0.5,0.6,0.9,1.3,1.5,1.9c0.9,1,2,1.6,3.2,2c0.3,0.1,0.4,0.2,0.4,0.5
	c0.2,1.7,0.7,3.2,1.8,4.5c0.8,1,1.5,1.9,2.6,2.6c1.6,1.1,3.4,1.7,5.4,1.9c3.5,0.2,6.4-1,8.9-3.5c0.2-0.2,0.3-0.4,0.5-0.6
	c0.3,0.9,0.9,1.7,1.6,2.3c1.3,1.1,2.7,1.7,4.4,1.5c4.1-0.5,8-1.7,11.7-3.5c1.8-0.9,3.6-2,5.3-3.2c1.9-1.3,3.7-2.9,5.3-4.6
	c1.1-1.2,2.1-2.4,3-3.7c0.9-1.3,1.8-2.5,2.4-3.9c1-2.2,2-4.5,2.7-6.8c1.7-6.4,1.7-12.8-0.3-19.2c-0.7-2.2-1.4-4.4-2.7-6.3
	c-0.9-1.4-1.7-2.8-2.7-4.2c-0.8-1.1-1.8-2.1-2.7-3.2c-1.7-1.9-3.7-3.6-5.9-5c-1.6-1-3.2-1.9-4.9-2.8c-3.1-1.6-6.4-2.5-9.7-3.1
	c-1.5-0.3-3-0.3-4.4,0.4C180.1,62.2,179.1,63.1,178.5,64.2z"/>
<path class="st0" d="M347,84.3c0-4,0-7.9,0-11.9c0-0.8-0.2-1-1-1s-1.6,0-2.5,0c-0.7,0-0.9,0.2-0.9,0.9c0,7.8,0,15.7,0,23.5
	c0,1.5,0.3,2.9,0.9,4.2c1.3,2.8,3.6,4.2,6.5,4.6c3.1,0.4,6.3,0.4,9.5,0c2.8-0.4,5-1.9,6.2-4.5c0.7-1.5,1-3.1,1-4.7
	c0-7.7,0-15.4,0-23.1c0-0.7-0.2-0.9-0.9-1c-0.7,0-1.4,0-2.1,0c-1,0-1.2,0.2-1.2,1.2c0,7.4,0,14.7,0,22.1c0,0.9-0.2,1.8-0.3,2.7
	c-0.4,2.1-1.8,3.3-3.9,3.6c-1.2,0.1-2.4,0.1-3.6,0.1s-2.3,0-3.5-0.1c-2.2-0.4-3.5-1.5-3.9-3.7c-0.2-0.9-0.2-1.8-0.2-2.6
	C347,91.3,347,87.8,347,84.3z"/>
<path class="st0" d="M443.8,97.7c0.1,0.2,0.1,0.4,0.2,0.5c0.6,1.9,1.2,3.8,1.8,5.7c0.2,0.7,0.5,0.8,1.2,0.8s1.5,0,2.2,0
	c0.8,0,1-0.2,0.8-1c-0.6-1.9-1.3-3.9-1.9-5.8c-0.9-2.7-1.7-5.5-2.6-8.2c-0.9-2.9-1.8-5.7-2.7-8.6c-0.9-2.9-1.9-5.9-2.8-8.8
	c-0.2-0.7-0.5-0.9-1.2-0.9c-1,0-2,0-3,0c-0.8,0-1.1,0.2-1.3,1c-0.8,2.6-1.7,5.3-2.5,7.9c-0.9,2.9-1.8,5.7-2.7,8.6
	c-0.9,2.7-1.7,5.5-2.6,8.2c-0.7,2.3-1.4,4.5-2.1,6.8c-0.2,0.6,0,0.8,0.6,0.9c0.9,0,1.7,0,2.6,0c0.5,0,0.8-0.2,1-0.7
	c0.3-0.9,0.6-1.7,0.9-2.6c0.3-1.1,0.6-2.1,0.9-3.2c0.1-0.4,0.3-0.6,0.7-0.6c4,0,8,0,12,0C443.5,97.7,443.6,97.7,443.8,97.7z"/>
<path class="st0" d="M231.1,88.1L231.1,88.1c0-2.2-0.1-4.5,0-6.7c0-0.8,0.1-1.6,0.2-2.4c0.3-2.3,1.4-3.5,3.7-3.9
	c2.5-0.4,5-0.3,7.4,0c1.8,0.3,3,1.4,3.4,3.1c0.2,0.8,0.3,1.7,0.4,2.5c0.1,0.4,0.2,0.7,0.7,0.7c1,0,2,0.1,3,0c0.5,0,0.7-0.3,0.7-0.9
	c-0.1-1.8-0.4-3.6-1.4-5.2c-1.2-2-2.8-3.3-5.1-3.8c-3.5-0.7-7.1-0.7-10.7,0c-2.8,0.5-4.7,2.3-5.8,4.9c-0.5,1.2-0.7,2.6-0.7,3.9
	c0,5.1,0,10.2,0,15.3c0,1.7,0.3,3.4,1.2,4.9c1.4,2.5,3.6,3.8,6.3,4.1c2.5,0.3,5.1,0.2,7.6,0.2c1.8,0,3.4-0.6,4.9-1.6
	c1.3-0.9,2.1-2.2,2.7-3.5c0.6-1.3,0.8-2.8,0.9-4.3c0-0.6-0.2-0.8-0.7-0.9c-1,0-1.9,0-2.9,0c-0.4,0-0.7,0.3-0.7,0.7
	c-0.1,0.6-0.1,1.2-0.2,1.7c-0.5,2.6-1.6,3.7-3.8,3.9c-2.3,0.2-4.7,0.2-7.1,0c-2-0.2-3.1-1-3.6-3.1c-0.2-0.6-0.3-1.2-0.3-1.8
	C231.1,93.5,231.1,90.8,231.1,88.1z"/>
<path class="st0" d="M377.1,88.1C377,88.1,377,88.1,377.1,88.1c-0.1-2.2-0.1-4.5-0.1-6.7c0-0.8,0.1-1.6,0.2-2.4
	c0.3-2.3,1.6-3.6,3.8-3.8c2.3-0.2,4.7-0.2,7.1,0c1.9,0.1,3.2,1.3,3.6,3.2c0.2,0.8,0.3,1.7,0.5,2.5c0.1,0.5,0.3,0.7,0.7,0.7
	c0.9,0,1.8,0,2.8,0c0.5,0,0.7-0.3,0.7-0.9c0-0.4,0-0.9-0.1-1.3c-0.3-1.8-0.7-3.5-1.9-5c-1.4-1.8-3.3-2.7-5.4-3
	c-2.9-0.4-5.9-0.4-8.8,0c-2.5,0.3-4.6,1.5-5.9,3.7c-1,1.6-1.5,3.4-1.5,5.4c0,4.6,0,9.2,0,13.9c0,1.5,0.1,2.9,0.5,4.4
	c0.5,1.5,1.1,3,2.4,4c1.6,1.3,3.4,2,5.4,2.1c2.7,0.2,5.4,0.3,8.1-0.1s4.7-1.8,6-4.2c0.8-1.6,1.1-3.3,1.2-5.1c0-0.6-0.2-0.8-0.8-0.8
	c-0.9,0-1.7,0-2.6,0c-0.6,0-0.7,0.2-0.8,0.8c-0.1,0.8-0.3,1.6-0.5,2.4c-0.5,2-1.8,3.1-3.8,3.2c-2.3,0.1-4.6,0.1-6.9,0
	c-1.8-0.1-3.1-1.1-3.6-3c-0.1-0.5-0.3-1.1-0.3-1.6C377,93.6,377.1,90.8,377.1,88.1z"/>
<path class="st0" d="M311.2,92.1c0.1,0.1,0.1,0.2,0.2,0.3c0.9,1.7,1.9,3.4,2.8,5.1c1.2,2.2,2.4,4.4,3.6,6.5c0.1,0.1,0.2,0.3,0.3,0.4
	c0.2,0.1,0.4,0.3,0.6,0.3c1.2,0,2.3,0,3.5,0c0.5,0,0.6-0.3,0.3-0.7c-0.2-0.4-0.5-0.8-0.8-1.3c-0.9-1.5-1.7-3.1-2.6-4.6
	c-1-1.8-2-3.5-3-5.3c-0.7-1.2-1.3-2.6-2.1-3.7c-0.6-0.8-0.6-1.3,0-2.2c1.1-1.7,2-3.5,3-5.2c0.8-1.4,1.6-2.8,2.4-4.2
	c1-1.8,2-3.5,3-5.3c0.3-0.6,0.2-0.8-0.5-0.8c-1,0-1.9,0-2.9,0c-0.6,0-0.9,0.2-1.2,0.7c-0.5,0.8-1,1.6-1.4,2.5
	c-1,1.7-1.9,3.5-2.9,5.2c-0.6,1.1-1.2,2.2-1.7,3.2c-0.2,0.3-0.4,0.7-0.6,1.1c-0.1-0.2-0.2-0.3-0.3-0.4c-0.9-1.6-1.8-3.2-2.6-4.7
	c-1.2-2.2-2.4-4.5-3.7-6.7c-0.1-0.2-0.2-0.4-0.4-0.5c-0.1-0.1-0.3-0.3-0.5-0.3c-1.1,0-2.3,0-3.4,0c-0.5,0-0.6,0.2-0.4,0.7
	c0.3,0.5,0.6,1,0.9,1.5c0.8,1.5,1.7,2.9,2.5,4.4c1,1.7,1.9,3.4,2.8,5c0.7,1.3,1.4,2.7,2.2,4c0.6,0.8,0.5,1.3,0,2.2
	c-1.1,1.7-2,3.5-3,5.3c-0.8,1.4-1.6,2.8-2.4,4.2c-1,1.7-1.9,3.4-2.9,5.2c-0.4,0.7-0.3,0.9,0.6,0.9s1.8,0,2.7,0c0.6,0,1-0.2,1.3-0.7
	c0.5-0.8,1-1.6,1.4-2.5c1-1.7,1.9-3.5,2.9-5.2c0.7-1.2,1.3-2.5,2-3.7C310.9,92.5,311,92.3,311.2,92.1z"/>
<path class="st0" d="M290.7,101.7c0,0.7,0,1.5,0,2.3c0,0.5,0.2,0.7,0.7,0.7c0.9,0,1.9,0,2.8,0c0.4,0,0.7-0.2,0.7-0.7
	c0-0.2,0-0.3,0-0.5c0-7.2,0-14.3,0-21.5c0-0.2,0-0.3,0-0.5c0-0.5-0.3-0.7-0.7-0.7c-0.8,0-1.5,0-2.3,0c-1,0-1.1,0.1-1.1,1.1
	c0,5.3,0,10.6,0,15.9c0,0.3-0.1,0.7-0.4,1c-0.7,0.8-1.5,1.4-2.5,1.8c-1.6,0.6-3.2,0.7-4.8,0.5c-0.6-0.1-1.3-0.4-1.9-0.7
	c-0.8-0.5-1-1.4-1.1-2.4c-0.1-0.8-0.1-1.7-0.1-2.5c0-4.5,0-9.1,0-13.6c0-0.8-0.2-1-0.9-1c-0.7,0-1.5,0-2.2,0c-0.9,0-1,0.1-1,1.1
	c0,2.4,0,4.8,0,7.2c0,2.8,0,5.7,0,8.5c0,1.7,0.5,3.4,1.6,4.7c0.5,0.6,1.1,1.1,1.7,1.5c1.9,1.1,3.9,1.1,6,0.9c1.7-0.2,3.2-0.8,4.4-2
	C289.8,102.4,290.2,102,290.7,101.7z"/>
<path class="st0" d="M406.6,101c0-0.3,0-0.5,0-0.7c0-9.2,0-18.3,0-27.5c0-0.2,0-0.3,0-0.5c0-0.6-0.2-0.8-0.9-0.8c-0.9,0-1.7,0-2.6,0
	c-0.8,0-0.9,0.2-0.9,1c0,10.5,0,20.9,0,31.4c0,0.8,0.2,0.9,0.9,0.9c5.6,0,11.3,0,16.9,0c0.6,0,0.8-0.2,0.9-0.9c0-0.6,0-1.3,0-1.9
	c0-0.8-0.2-0.9-1-0.9c-4.2,0-8.4,0-12.7,0C407.1,101,406.9,101,406.6,101z"/>
<path class="st0" d="M260.4,84.2c0-0.9,0-1.6,0-2.4c0-0.7-0.2-0.9-0.9-0.9c-0.9,0-1.7,0-2.6,0c-0.6,0-0.8,0.2-0.8,0.8
	c0,7.4,0,14.8,0,22.2c0,0.6,0.2,0.8,0.8,0.8c0.7,0,1.5,0,2.2,0c1.1,0,1.2-0.1,1.2-1.2c0-5.3,0-10.5,0-15.8c0-0.5,0.1-0.8,0.4-1.1
	c0.8-1,1.9-1.6,3.1-1.9c1.8-0.5,3.6-0.4,5.4,0c0.4,0.1,0.8,0.1,1.1-0.3c0.4-0.7,0.8-1.3,1.1-2c0.3-0.7,0.1-1-0.6-1.3
	c-1.3-0.4-2.7-0.6-4.1-0.5c-2.1,0.2-4.1,0.8-5.6,2.4C261,83.5,260.8,83.8,260.4,84.2z"/>
<path class="st0" d="M260,120.7h-0.1c0-0.1-0.1-0.1-0.1-0.2c-1.2-2.4-2.4-4.8-3.4-7.2c-0.4-0.9-0.9-1.3-1.9-1.2
	c-0.5,0.1-0.6,0.2-0.6,0.7c0,3.1,0,6.2,0,9.3c0,1-0.1,0.9,0.9,0.9c0.4,0,0.6-0.1,0.5-0.5c0-2.5,0-5.1,0-7.6c0-0.2,0-0.3,0-0.6
	c0.1,0.2,0.2,0.2,0.2,0.3c0.8,1.6,1.6,3.2,2.3,4.8c0.5,1.1,1,2.2,1.5,3.3c0.1,0.2,0.2,0.4,0.4,0.4c0.5,0,1.1,0,1.7,0
	c0-3.6,0-7.2,0-10.8c-0.3,0-0.6,0-0.9,0c-0.4,0-0.5,0.1-0.5,0.5c0,1.4,0,2.8,0,4.2C260,118,260,119.4,260,120.7z"/>
<path class="st0" d="M335.1,117.5L335.1,117.5c0,1,0,1.9,0,2.9c0,1.1,1.1,2.5,2.2,2.6c1,0.1,1.9,0.1,2.9,0.1
	c1.6-0.1,2.5-0.9,2.6-2.5c0.1-1,0.1-2.1,0.1-3.2c0-1,0-2-0.1-3c-0.1-1.3-1-2.1-2.3-2.3c-0.8-0.1-1.6-0.1-2.3-0.1
	c-1.7-0.1-3.2,1.1-3.2,2.9C335.1,115.7,335.1,116.6,335.1,117.5z"/>
<path class="st0" d="M353.4,124.8c0,0.2,0,0.4,0,0.6c0,0.3,0.1,0.5,0.4,0.5c0.9,0,1.7,0.1,2.6,0c1.4-0.2,2-0.9,2.1-2.4
	c0.1-1.2,0-2.4,0-3.6c0-1.4,0-2.8,0-4.2c0-0.2-0.1-0.5-0.2-0.5c-0.3-0.1-0.7-0.1-1,0c-0.1,0-0.2,0.4-0.3,0.7
	c-0.7-0.8-1.7-0.8-2.7-0.7c-1.3,0.1-2.3,1-2.4,2.3c-0.1,1-0.1,1.9,0,2.9c0,1.1,0.4,2,1.5,2.4s2.3,0.6,3.3-0.4
	c0.1-0.1,0.2-0.1,0.4-0.2c0,0.4,0,0.8,0,1.1c0,1-0.5,1.5-1.5,1.6C354.9,124.9,354.2,124.8,353.4,124.8z"/>
<path class="st0" d="M322.6,116.2c0-1.1,0-2.2,0-3.2c0-1.1,0-0.9-1-1c-0.4,0-0.5,0.2-0.5,0.5c0,1.3,0,2.6,0,3.8c0,2,0,4,0,6
	c0,0.5,0.1,0.6,0.6,0.6c0.1,0,0.2,0,0.3,0c0.5,0.1,0.6-0.1,0.6-0.6c0-1.5,0-3,0-4.4c0-0.9,0.2-1.2,1.1-1.4c1.8-0.5,2.5,0,2.4,1.7
	c-0.1,1.3,0,2.6,0,3.9c0,1-0.1,0.8,0.9,0.9c0.5,0,0.6-0.1,0.6-0.6c0-1.4,0-2.9,0-4.3c0-0.6-0.2-1.1-0.3-1.6
	c-0.3-0.8-0.9-1.1-1.7-1.2C324.4,115,323.4,115.2,322.6,116.2z"/>
<path class="st0" d="M395.9,122.9c0-0.3,0-0.5,0-0.7c0-1.6,0-3.2,0-4.7c0-0.9-0.3-1.7-1.2-2c-1.4-0.5-2.8-0.4-4.2,0.1
	c-0.4,0.2-0.5,0.3-0.3,0.8c0.2,0.4,0.4,0.5,0.8,0.3c0.8-0.4,1.7-0.4,2.7-0.3c0.4,0.1,0.7,0.2,0.8,0.6c0.1,0.4,0.1,0.9,0.1,1.4
	c-0.3,0-0.5,0-0.6,0c-0.8,0-1.6,0-2.4,0c-1.2,0-1.9,0.7-2,1.9c-0.1,1.3,0.4,2.4,1.6,2.6c1.2,0.3,2.5,0.3,3.4-0.9
	C394.6,123,394.5,123,395.9,122.9z"/>
<path class="st0" d="M306,119.6c0.3,0,0.4,0,0.6,0c1.1,0,2.2,0,3.4,0c0.8,0,0.9-0.1,0.9-0.8c0-0.3,0-0.6,0-0.9
	c0-1.3-0.9-2.5-2.1-2.6c-0.6-0.1-1.3-0.1-2,0c-1.3,0.2-2.2,1.2-2.2,2.5c0,0.9-0.1,1.9,0,2.8c0.1,1,0.5,1.8,1.5,2.3
	c0.7,0.3,1.4,0.3,2.1,0.3c0.9,0,1.7-0.3,2.3-1.1c0.1-0.2,0.5-0.4,0.1-0.7c-0.3-0.2-0.5-0.5-0.9-0.1c-0.3,0.3-0.7,0.4-1.1,0.5
	s-0.8,0-1.2,0c-0.7,0-1.2-0.4-1.3-1.2C306,120.3,306,120,306,119.6z"/>
<path class="st0" d="M367,122.9c0-1.8,0-3.6,0-5.4c0-1-0.4-1.8-1.4-2.1c-1.4-0.4-2.7-0.3-4,0.3c-0.4,0.2-0.4,0.4-0.2,0.7
	c0.2,0.3,0.3,0.5,0.7,0.4c0.9-0.4,1.9-0.5,2.9-0.2c0.3,0.1,0.6,0.3,0.7,0.6c0.1,0.4,0.1,0.9,0.1,1.4c-0.6,0-1.1,0-1.6,0
	s-1.1,0-1.6,0c-1.1,0.1-1.8,0.7-1.9,1.8c-0.2,1.3,0.4,2.4,1.4,2.7c1,0.3,2.1,0.3,3-0.3c0.2-0.1,0.4-0.4,0.6-0.6
	C365.7,123,365.7,123,367,122.9z"/>
<path class="st0" d="M265,119.6c0.2,0,0.4,0,0.6,0c1.1,0,2.3,0,3.4,0c0.8,0,0.9-0.1,0.9-0.9c0-0.4,0-0.7,0-1.1
	c-0.1-1.2-0.8-2.2-2-2.4c-0.7-0.1-1.5-0.1-2.3,0c-1.1,0.2-1.9,1-2,2c-0.1,1.1-0.1,2.3,0,3.5s0.9,2,2,2.2c0.7,0.1,1.5,0.1,2.2,0
	c0.9-0.1,1.4-0.7,1.8-1.4c-0.6-0.6-0.7-0.7-1.2-0.1c-0.1,0.1-0.3,0.2-0.4,0.2c-0.7,0.1-1.3,0.2-2,0.1c-0.7,0-1-0.5-1.1-1
	C265,120.4,265,120,265,119.6z"/>
<path class="st0" d="M414.2,119.1L414.2,119.1c0-0.6,0-1.2-0.1-1.8c-0.1-0.6-0.3-1.2-0.9-1.6c-0.9-0.7-2-0.6-3-0.6
	c-1.3,0-2.6,1.3-2.6,2.7c0,0.8,0,1.7,0,2.5c0,1.2,1.1,2.5,2.3,2.6c0.6,0.1,1.3,0.1,1.9,0c1.5-0.3,2.2-1.1,2.3-2.6
	C414.2,119.9,414.2,119.5,414.2,119.1z"/>
<path class="st0" d="M293.9,119.1L293.9,119.1c0-0.5,0-1,0-1.5c0-1.2-0.7-2-1.8-2.3c-0.7-0.2-1.5-0.2-2.3-0.1c-1.2,0-2.2,0.9-2.3,2
	c-0.1,1.2-0.1,2.5,0,3.7c0.1,1.1,1,1.9,2.1,2.1c0.6,0.1,1.3,0.1,1.9,0c1.5-0.2,2.4-1.1,2.4-2.7C293.9,119.9,293.9,119.5,293.9,119.1
	z"/>
<path class="st0" d="M277.1,121.9c0,0.2,0,0.4,0,0.5c-0.1,0.4,0.1,0.6,0.5,0.5c0.1,0,0.2,0,0.3,0c0.4,0,0.5-0.1,0.5-0.5
	c0-2.3,0-4.5,0-6.8c0-0.6-0.4-0.5-0.8-0.5s-0.6,0-0.6,0.5c0,1.6,0,3.2,0,4.7c0,0.6-0.3,0.9-0.7,1.1c-0.2,0.1-0.4,0.2-0.7,0.2
	c-1.5,0.4-2.1-0.1-2.1-1.6c0-0.2,0-0.3,0-0.5c0-1.3,0-2.5,0-3.8c0-0.2-0.2-0.6-0.3-0.6c-0.8-0.3-1.1,0-1.1,0.8c0,0.3,0,0.6,0,1
	c0,1.3,0,2.6,0.1,3.9c0,0.8,0.3,1.6,1.2,1.9C274.7,123.2,276,123.1,277.1,121.9z"/>
<path class="st0" d="M370.8,116.2c0-0.3,0-0.3,0-0.4c0-0.6,0-0.6-0.8-0.7c-0.5,0-0.6,0.2-0.6,0.6c0,2.2,0,4.3,0,6.5
	c0,0.2,0,0.4,0,0.6c0.3,0,0.6,0,0.9,0c0.4,0,0.5-0.1,0.5-0.5c0-1.5,0-3,0-4.5c0-0.9,0.3-1.2,1-1.5c1.9-0.5,2.6,0,2.5,1.7
	c-0.1,1.4,0,2.8,0,4.1c0,0.2,0,0.4,0.1,0.7c0.3,0,0.6,0,0.9,0c0.1,0,0.3-0.2,0.3-0.3c0-1.9,0-3.7-0.1-5.6c-0.1-1.2-0.8-1.8-2-1.9
	C372.5,115,371.5,115.3,370.8,116.2z"/>
<path class="st0" d="M417.7,116.1c0-0.2,0-0.3,0-0.4c0.1-0.7-0.4-0.5-0.8-0.6c-0.5,0-0.6,0.2-0.6,0.6c0,2.2,0,4.4,0,6.6
	c0,0.5,0.2,0.6,0.6,0.6s0.7,0.1,0.7-0.5c0-1.5,0-3.1,0-4.6c0-0.7,0.3-1.1,0.9-1.3c0.3-0.1,0.6-0.1,0.8-0.2c1.2-0.1,1.7,0.3,1.7,1.5
	c0,1.4,0,2.8,0,4.2c0,1-0.2,0.9,0.9,0.9c0.4,0,0.5-0.2,0.5-0.6c0-1.5,0-3,0-4.5c0-0.4,0-0.7-0.1-1.1c-0.2-0.8-0.6-1.3-1.4-1.5
	C419.9,114.9,418.7,115.1,417.7,116.1z"/>
<path class="st0" d="M383.4,121.7c0.3-0.3,0.5-0.5,0.6-0.7c1.1-1.4,2.2-2.9,3.3-4.3c0.3-0.4,0.3-0.7,0.3-1.1c0-0.3-0.1-0.4-0.4-0.4
	c-1.6,0-3.2,0-4.8,0c-0.1,0-0.3,0.1-0.3,0.2c-0.2,0.6,0,1,0.7,1s1.3,0,2,0c0.4,0,0.7,0,1.2,0c-0.2,0.2-0.2,0.4-0.3,0.5
	c-1.1,1.5-2.3,3.1-3.5,4.6c-0.3,0.4-0.4,0.9-0.2,1.4c0.2,0,0.3,0,0.5,0c1.6,0,3.2,0,4.7,0c0.5,0,0.6-0.2,0.6-0.6s0-0.7-0.6-0.7
	C385.9,121.7,384.7,121.7,383.4,121.7z"/>
<path class="st0" d="M312.8,119L312.8,119c0,0.5,0,1,0,1.5c0.1,0.9,0.4,1.6,1.2,2c0.8,0.4,1.5,0.4,2.4,0.4s1.7-0.3,2.3-1.1
	c0.1-0.2,0.5-0.4,0.1-0.7c-0.3-0.2-0.6-0.6-1-0.1c-0.3,0.4-0.8,0.6-1.3,0.6c-0.3,0-0.6,0-0.9,0c-0.9,0-1.3-0.5-1.4-1.4
	c0-0.7,0-1.3,0-2c0-0.3,0-0.6,0-0.9c0.1-0.7,0.5-1.1,1.2-1.1c1.3-0.2,2,0,2.2,0.7s0.6,0.6,1.1,0.6c0.3,0,0.4-0.2,0.3-0.4
	c-0.2-1-0.7-1.8-1.7-2c-0.9-0.1-1.8-0.1-2.7,0.1c-1.2,0.3-1.8,1.2-1.8,2.4C312.8,118.2,312.8,118.6,312.8,119z"/>
<path class="st0" d="M299.9,113.3c0.8,0,1.5,0,2.2,0c0.5,0,0.6-0.1,0.6-0.6s-0.1-0.6-0.6-0.6c-1.9,0-3.9,0-5.8,0
	c-0.5,0-0.6,0.2-0.6,0.6s0,0.7,0.6,0.7c0.7,0,1.5,0,2.3,0c0,0.3,0,0.4,0,0.6c0,2.8,0,5.6,0,8.5c0,0.4,0.1,0.6,0.5,0.5
	c0.1,0,0.2,0,0.3,0c0.4,0.1,0.5-0.1,0.5-0.5c0-1.6,0-3.2,0-4.8C299.9,116.2,299.9,114.8,299.9,113.3z"/>
<path class="st0" d="M398.9,116.5c0,1.4,0,2.8,0,4.2c0,1.6,0.7,2.2,2.3,2.3c0.3,0,0.5,0,0.5-0.4c0-0.3,0.3-0.8-0.4-0.8
	c-0.7-0.1-0.9-0.4-1-1.1c0-0.4,0-0.8,0-1.2c0-1,0-2,0-3.1c0.4,0,0.7,0,1.1,0c0.5,0,0.3-0.4,0.4-0.7c0-0.3,0-0.5-0.4-0.5
	c-0.3,0-0.7,0-0.9,0c-0.3-0.4,0.3-1.2-0.7-1.2c-0.3,0-0.7,0-0.7,0.1c-0.1,0.3-0.1,0.7-0.2,1.1c-1,0.2-1,0.2-1,0.8
	C397.9,116.7,398.5,116.2,398.9,116.5z"/>
<path class="st0" d="M346.7,116.2c0-0.2,0-0.3,0-0.4c0.1-0.5-0.1-0.6-0.6-0.6c-0.1,0-0.2,0-0.3,0c-0.5-0.1-0.6,0.1-0.6,0.6
	c0,1.3,0,2.7,0,4c0,0.9,0,1.8,0,2.8c0,0.1,0.2,0.4,0.3,0.4c0.3,0.1,0.7,0,1.1,0c0-0.3,0-0.5,0-0.7c0-1.5,0-3,0-4.5
	c0-0.6,0.3-1,0.8-1.2c0.7-0.3,1.3-0.3,2-0.2c0.4,0.1,0.8-0.2,0.8-0.8c0.1-0.5-0.3-0.4-0.6-0.5C348.6,115,347.6,115.1,346.7,116.2z"
	/>
<path class="st0" d="M282.2,116.2c0-0.3,0-0.4,0-0.5c0.1-0.5-0.1-0.6-0.6-0.6c-0.1,0-0.2,0-0.3,0c-0.4-0.1-0.6,0.1-0.6,0.5
	c0,2.1,0,4.2,0,6.3c0,1-0.1,0.9,0.9,0.9c0.4,0,0.5-0.2,0.5-0.6c0-1.6,0-3.2,0-4.7c0-0.3,0.2-0.6,0.4-0.8c0.7-0.6,1.6-0.6,2.4-0.4
	c0.4,0.1,0.7-0.2,0.8-0.7c0.1-0.4-0.3-0.4-0.5-0.5C284.2,115,283.1,115.1,282.2,116.2z"/>
<path class="st0" d="M378.2,122.9c0.3,0,0.6,0,0.9,0s0.5-0.1,0.5-0.4c0-2.3,0-4.6,0-6.9c0-0.1,0-0.4-0.1-0.4c-0.4,0-0.8-0.1-1.2,0
	c-0.1,0-0.2,0.4-0.2,0.6c0,2.2,0,4.4,0,6.5C378.1,122.5,378.2,122.7,378.2,122.9z"/>
<path class="st0" d="M404,119c0,1.1,0,2.3,0,3.4c0,0.4,0.1,0.5,0.5,0.5c0.1,0,0.2,0,0.3,0c0.7,0,0.7,0,0.7-0.7c0-2.1,0-4.2,0-6.3
	c0-0.7,0-0.7-0.7-0.7c-0.1,0-0.1,0-0.2,0c-0.4,0-0.5,0.1-0.5,0.5C404,116.8,404,117.9,404,119z"/>
<path class="st0" d="M378.2,113.4c0.3,0,0.5,0,0.8,0c0.5,0.1,0.5-0.3,0.5-0.7c0-0.4,0-0.7-0.5-0.7c-1,0.1-0.8-0.1-0.8,0.9
	C378.2,113.1,378.2,113.2,378.2,113.4z"/>
<path class="st0" d="M405.3,112.1c-1.5-0.1-1.4-0.2-1.3,1.2C405.3,113.6,405.6,113.3,405.3,112.1z"/>
<path d="M178.5,64.2c0.5-1.2,1.5-2,2.7-2.6c1.4-0.7,2.9-0.7,4.4-0.4c3.4,0.6,6.7,1.5,9.7,3.1c1.7,0.9,3.3,1.8,4.9,2.8
	c2.2,1.4,4.2,3,5.9,5c0.9,1,1.9,2.1,2.7,3.2c1,1.3,1.8,2.8,2.7,4.2c1.3,2,2,4.2,2.7,6.3c2.1,6.4,2.1,12.8,0.3,19.2
	c-0.6,2.3-1.7,4.6-2.7,6.8c-0.6,1.4-1.5,2.7-2.4,3.9c-0.9,1.3-1.9,2.5-3,3.7c-1.6,1.7-3.3,3.3-5.3,4.6c-1.7,1.1-3.4,2.2-5.3,3.2
	c-3.7,1.9-7.6,3.1-11.7,3.5c-1.7,0.2-3.1-0.4-4.4-1.5c-0.7-0.6-1.2-1.4-1.6-2.3c-0.2,0.2-0.3,0.4-0.5,0.6c-2.4,2.5-5.3,3.8-8.9,3.5
	c-2-0.1-3.7-0.8-5.4-1.9c-1-0.7-1.8-1.6-2.6-2.6c-1.1-1.3-1.6-2.9-1.8-4.5c0-0.3-0.1-0.4-0.4-0.5c-1.3-0.4-2.4-1-3.2-2
	c-0.5-0.6-1-1.3-1.5-1.9c-0.1-0.1-0.3-0.3-0.4-0.3c-2.5-0.5-4.6-1.6-6.2-3.6c-1.8-2.1-2.5-4.6-2.3-7.3c0-0.7,0.2-1.3,0.4-1.9
	c0.1-0.3,0-0.5-0.2-0.8c-1.9-2-2.7-4.4-2.6-7.1c0.1-1.9,0.6-3.6,1.7-5.2c0.1-0.1,0.2-0.2,0.3-0.3c0.1-0.1,0.1-0.3,0.1-0.4
	c-0.6-0.9-0.8-2-0.9-3.1c-0.2-1.4,0-2.8,0.6-4c1-2.2,2.6-3.9,4.9-4.9c0.5-0.2,0.7-0.5,0.9-0.9c0.5-1.4,1.4-2.6,2.7-3.3
	c0.2-0.1,0.3-0.4,0.4-0.6c0.2-1.6,0.6-3.2,1.6-4.5c1.8-2.5,4.3-3.8,7.4-4c0.3,0,0.5-0.1,0.7-0.4c2-2.7,4.6-4.1,8-4.1
	c2.1,0,4,0.6,5.6,1.9C177.2,63,177.9,63.6,178.5,64.2z M169.7,112.8c-0.3,0-0.5,0.1-0.8,0.1c-0.1,0-0.1,0-0.2,0
	c-2.5,0.3-4.4,1.4-5.9,3.4c-2.3,3.1-1.6,7.5,0.7,9.8c1.6,1.5,3.3,2.5,5.5,2.6c3.8,0.3,6.9-1.7,8.4-4.9c0.5-1,0.6-2,0.6-3.1
	c0-16.9,0-33.8,0-50.7c0-1.6-0.4-3-1.4-4.2c-0.8-1-1.7-1.8-2.9-2.2c-2.9-1.2-5.9-0.5-8,1.6c-2.9,2.9-2.5,8.1,1.3,10.3
	c0.6,0.4,1.3,0.6,2,0.9c0.6,0.2,1.2,0.2,1.7,0.3c0,0.7,0,1.5,0,2.2c-3.1-0.1-5.7-1.3-7.5-3.7c-1.8-2.2-2.1-4.8-1.6-7.6
	c-3.5,0.4-5.9,3.3-6,5.6c5-0.6,8.2,3.6,8,6.7c-0.8,0-1.5,0-2.3,0c-0.2-3.1-2.9-4.6-4.9-4.5c-2.5,0.1-4.4,2.2-4.6,4.1
	c-0.1,1.1,0.2,2.2,0.9,3.1c1,1.2,2.2,1.8,3.8,1.9c0,0.8,0,1.5,0,2.3c-3.8-0.2-6.1-2.3-7.1-5.9c-1.4,0.9-2.6,2.1-3.1,3.6
	c-0.7,2.1-0.6,4.2,0.8,6.1c0.2,0.3,0.4,0.6,0,0.9c-0.9,0.7-1.4,1.6-1.8,2.7c-1.1,2.7-0.7,5.2,1,7.7c2.3-3,5.2-4.7,9-4.7
	c0,0.8,0,1.5,0,2.2c-4.9,0.2-8.1,3.7-8.2,7.7c-0.1,3.9,2.5,7,5.9,7.8c-0.1-2.3,0.5-4.4,2.2-6.1s3.7-2.5,6-2.5c0,0.8,0,1.5,0,2.2
	c-3.6,0.2-5.7,2.6-5.8,5.3c-0.2,2.7,1.5,4.9,3.6,5.5c1.1-6,6.9-8.9,10.5-8.5C169.7,111.3,169.7,112.1,169.7,112.8z M213.4,95.4
	c-0.1-3.8-0.5-6.4-1.8-10c-0.7-2-1.5-4-2.7-5.8c-0.9-1.3-1.8-2.6-2.7-3.8c-0.8-1.1-1.8-2.1-2.8-3c-1.6-1.7-3.4-3-5.4-4.3
	c-1.8-1.1-3.6-2.1-5.5-2.9c-2.6-1.1-5.3-1.9-8.1-2.2c-2.3-0.3-4,1.3-4,3.5c0,19.3,0,38.6,0,57.8c0,2.4,2,3.9,4.1,3.6
	c4.1-0.6,8-1.9,11.5-3.9c1.8-1,3.5-2.2,5.2-3.5c2-1.6,3.8-3.5,5.4-5.5c1-1.3,1.9-2.6,2.6-4c1-2,2-4.1,2.7-6.2
	C213.1,102,213.5,98.7,213.4,95.4z"/>
<path d="M347,84.3c0,3.5,0,6.9,0,10.4c0,0.9,0.1,1.8,0.2,2.6c0.4,2.2,1.7,3.3,3.9,3.7c1.1,0.2,2.3,0.1,3.5,0.1s2.4,0,3.6-0.1
	c2.1-0.2,3.5-1.5,3.9-3.6c0.2-0.9,0.3-1.8,0.3-2.7c0-7.4,0-14.7,0-22.1c0-1.1,0.2-1.2,1.2-1.2c0.7,0,1.4,0,2.1,0s0.9,0.3,0.9,1
	c0,7.7,0,15.4,0,23.1c0,1.6-0.3,3.2-1,4.7c-1.3,2.6-3.4,4.1-6.2,4.5c-3.1,0.5-6.3,0.5-9.5,0c-2.9-0.4-5.2-1.8-6.5-4.6
	c-0.6-1.4-0.9-2.8-0.9-4.2c0-7.8,0-15.7,0-23.5c0-0.7,0.2-0.9,0.9-0.9c0.8,0,1.6,0,2.5,0c0.8,0,1,0.2,1,1
	C347,76.4,347,80.4,347,84.3z"/>
<path d="M443.8,97.7c-0.2,0-0.3,0-0.5,0c-4,0-8,0-12,0c-0.4,0-0.6,0.1-0.7,0.6c-0.3,1.1-0.6,2.1-0.9,3.2c-0.3,0.9-0.6,1.7-0.9,2.6
	c-0.2,0.5-0.5,0.7-1,0.7c-0.9,0-1.7,0-2.6,0c-0.6,0-0.8-0.3-0.6-0.9c0.7-2.3,1.4-4.5,2.1-6.8c0.8-2.7,1.7-5.5,2.6-8.2
	c0.9-2.9,1.8-5.7,2.7-8.6c0.8-2.6,1.7-5.3,2.5-7.9c0.2-0.7,0.5-1,1.3-1c1,0,2,0,3,0c0.7,0,1,0.2,1.2,0.9c0.9,2.9,1.9,5.9,2.8,8.8
	s1.8,5.7,2.7,8.6c0.9,2.7,1.7,5.5,2.6,8.2c0.6,1.9,1.3,3.9,1.9,5.8c0.3,0.8,0.1,1-0.8,1c-0.7,0-1.5,0-2.2,0c-0.8,0-1-0.1-1.2-0.8
	c-0.6-1.9-1.2-3.8-1.8-5.7C443.9,98.1,443.9,97.9,443.8,97.7z M431.8,94.1c3.6,0,7.2,0,10.8,0c-1.8-5.9-3.6-11.6-5.4-17.4h-0.1
	C435.4,82.4,433.6,88.2,431.8,94.1z"/>
<path d="M231.1,88.1c0,2.7,0,5.4,0,8.1c0,0.6,0.1,1.2,0.3,1.8c0.6,2.1,1.7,2.9,3.6,3.1c2.3,0.2,4.7,0.2,7.1,0
	c2.2-0.2,3.3-1.4,3.8-3.9c0.1-0.6,0.1-1.1,0.2-1.7c0-0.4,0.3-0.7,0.7-0.7c1,0,1.9,0,2.9,0c0.5,0,0.7,0.3,0.7,0.9
	c0,1.5-0.2,2.9-0.9,4.3c-0.6,1.4-1.4,2.7-2.7,3.5c-1.5,1-3.2,1.6-4.9,1.6c-2.5,0.1-5.1,0.1-7.6-0.2c-2.7-0.3-4.9-1.6-6.3-4.1
	c-0.9-1.6-1.2-3.2-1.2-4.9c-0.1-5.1,0-10.2,0-15.3c0-1.3,0.2-2.7,0.7-3.9c1.1-2.6,3-4.3,5.8-4.9c3.5-0.7,7.1-0.7,10.7,0
	c2.2,0.5,3.9,1.8,5.1,3.8c0.9,1.6,1.3,3.4,1.4,5.2c0,0.6-0.2,0.9-0.7,0.9c-1,0-2,0-3,0c-0.4,0-0.6-0.3-0.7-0.7
	c-0.1-0.8-0.2-1.7-0.4-2.5c-0.4-1.8-1.6-2.9-3.4-3.1c-2.5-0.3-5-0.4-7.4,0c-2.3,0.3-3.4,1.6-3.7,3.9c-0.1,0.8-0.2,1.6-0.2,2.4
	C231.1,83.6,231.1,85.8,231.1,88.1L231.1,88.1z"/>
<path d="M377.1,88.1c0,2.8,0,5.5,0,8.3c0,0.6,0.1,1.1,0.3,1.6c0.5,1.8,1.8,2.9,3.6,3c2.3,0.2,4.6,0.1,6.9,0c2-0.1,3.3-1.3,3.8-3.2
	c0.2-0.8,0.3-1.6,0.5-2.4c0.1-0.6,0.3-0.8,0.8-0.8c0.9,0,1.7,0,2.6,0c0.6,0,0.8,0.3,0.8,0.8c-0.1,1.8-0.4,3.5-1.2,5.1
	c-1.3,2.4-3.4,3.8-6,4.2c-2.7,0.4-5.4,0.3-8.1,0.1c-2-0.1-3.9-0.8-5.4-2.1c-1.2-1.1-1.9-2.5-2.4-4c-0.5-1.4-0.5-2.9-0.5-4.4
	c0-4.6,0-9.2,0-13.9c0-1.9,0.5-3.7,1.5-5.4c1.3-2.2,3.5-3.3,5.9-3.7c2.9-0.4,5.9-0.4,8.8,0c2.2,0.3,4,1.2,5.4,3
	c1.2,1.5,1.6,3.2,1.9,5c0.1,0.4,0.1,0.8,0.1,1.3s-0.2,0.8-0.7,0.9c-0.9,0-1.8,0-2.8,0c-0.4,0-0.7-0.3-0.7-0.7
	c-0.1-0.8-0.3-1.7-0.5-2.5c-0.5-1.9-1.7-3.1-3.6-3.2c-2.4-0.1-4.7-0.2-7.1,0c-2.2,0.2-3.4,1.5-3.8,3.8c-0.1,0.8-0.2,1.6-0.2,2.4
	C377,83.6,377,85.8,377.1,88.1C377,88.1,377,88.1,377.1,88.1z"/>
<path d="M311.2,92.1c-0.1,0.2-0.2,0.4-0.3,0.5c-0.7,1.2-1.3,2.5-2,3.7c-1,1.8-1.9,3.5-2.9,5.2c-0.5,0.8-1,1.6-1.4,2.5
	c-0.3,0.5-0.7,0.8-1.3,0.7c-0.9,0-1.8,0-2.7,0c-0.8,0-0.9-0.2-0.6-0.9c1-1.7,1.9-3.5,2.9-5.2c0.8-1.4,1.6-2.8,2.4-4.2
	c1-1.8,1.9-3.6,3-5.3c0.5-0.8,0.6-1.3,0-2.2c-0.9-1.2-1.5-2.6-2.2-4c-0.9-1.7-1.9-3.4-2.8-5c-0.8-1.5-1.6-2.9-2.5-4.4
	c-0.3-0.5-0.6-1-0.9-1.5c-0.2-0.4-0.1-0.7,0.4-0.7c1.1,0,2.3,0,3.4,0c0.2,0,0.4,0.1,0.5,0.3c0.2,0.1,0.3,0.3,0.4,0.5
	c1.2,2.2,2.4,4.5,3.7,6.7c0.9,1.6,1.8,3.2,2.6,4.7c0.1,0.1,0.1,0.2,0.3,0.4c0.2-0.4,0.4-0.7,0.6-1.1c0.6-1.1,1.2-2.2,1.7-3.2
	c1-1.7,1.9-3.5,2.9-5.2c0.5-0.8,1-1.6,1.4-2.5c0.3-0.5,0.6-0.7,1.2-0.7c1,0,1.9,0,2.9,0c0.7,0,0.9,0.2,0.5,0.8c-1,1.8-2,3.5-3,5.3
	c-0.8,1.4-1.6,2.8-2.4,4.2c-1,1.8-1.9,3.6-3,5.2c-0.6,0.8-0.6,1.3,0,2.2c0.8,1.2,1.4,2.5,2.1,3.7c1,1.8,2,3.5,3,5.3
	c0.9,1.5,1.7,3.1,2.6,4.6c0.2,0.4,0.5,0.8,0.8,1.3c0.2,0.4,0.1,0.7-0.3,0.7c-1.2,0-2.3,0-3.5,0c-0.2,0-0.4-0.2-0.6-0.3
	c-0.1-0.1-0.2-0.3-0.3-0.4c-1.2-2.2-2.4-4.4-3.6-6.5c-0.9-1.7-1.9-3.4-2.8-5.1C311.3,92.3,311.3,92.2,311.2,92.1z"/>
<path d="M290.7,101.7c-0.4,0.4-0.9,0.7-1.3,1.1c-1.3,1.2-2.8,1.8-4.4,2c-2,0.2-4.1,0.2-6-0.9c-0.6-0.4-1.3-0.9-1.7-1.5
	c-1.1-1.4-1.5-3-1.6-4.7c0-2.8,0-5.7,0-8.5c0-2.4,0-4.8,0-7.2c0-1,0.1-1.1,1-1.1c0.7,0,1.5,0,2.2,0c0.8,0,0.9,0.1,0.9,1
	c0,4.5,0,9.1,0,13.6c0,0.8,0,1.7,0.1,2.5c0.1,0.9,0.3,1.8,1.1,2.4c0.5,0.4,1.2,0.7,1.9,0.7c1.6,0.2,3.3,0.2,4.8-0.5
	c1-0.4,1.8-1,2.5-1.8c0.2-0.3,0.4-0.7,0.4-1c0-5.3,0-10.6,0-15.9c0-1,0.1-1.1,1.1-1.1c0.8,0,1.5,0,2.3,0c0.5,0,0.7,0.2,0.7,0.7
	c0,0.2,0,0.3,0,0.5c0,7.2,0,14.3,0,21.5c0,0.2,0,0.3,0,0.5c0,0.4-0.2,0.7-0.7,0.7c-0.9,0-1.9,0-2.8,0c-0.5,0-0.7-0.3-0.7-0.7
	C290.7,103.2,290.7,102.4,290.7,101.7z"/>
<path d="M406.6,101c0.3,0,0.5,0,0.7,0c4.2,0,8.4,0,12.7,0c0.8,0,1,0.2,1,0.9c0,0.6,0,1.3,0,1.9s-0.2,0.9-0.9,0.9
	c-5.6,0-11.3,0-16.9,0c-0.8,0-0.9-0.2-0.9-0.9c0-10.5,0-20.9,0-31.4c0-0.8,0.2-1,0.9-1c0.9,0,1.7,0,2.6,0c0.6,0,0.8,0.2,0.9,0.8
	c0,0.2,0,0.3,0,0.5c0,9.2,0,18.3,0,27.5C406.6,100.5,406.6,100.7,406.6,101z"/>
<path d="M260.4,84.2c0.4-0.4,0.6-0.7,0.9-1c1.5-1.6,3.5-2.2,5.6-2.4c1.4-0.1,2.7,0,4.1,0.5c0.7,0.2,0.9,0.6,0.6,1.3
	c-0.3,0.7-0.7,1.3-1.1,2c-0.3,0.4-0.7,0.4-1.1,0.3c-1.8-0.5-3.6-0.5-5.4,0c-1.2,0.3-2.3,0.9-3.1,1.9c-0.3,0.3-0.4,0.7-0.4,1.1
	c0,5.3,0,10.5,0,15.8c0,1-0.1,1.2-1.2,1.2c-0.7,0-1.5,0-2.2,0c-0.6,0-0.8-0.2-0.8-0.8c0-7.4,0-14.8,0-22.2c0-0.6,0.2-0.8,0.8-0.8
	c0.9,0,1.7,0,2.6,0c0.7,0,0.9,0.2,0.9,0.9C260.4,82.6,260.4,83.3,260.4,84.2z"/>
<path d="M260,120.7c0-1.3,0-2.6,0-3.9c0-1.4,0-2.8,0-4.2c0-0.4,0.1-0.5,0.5-0.5c0.3,0,0.6,0,0.9,0c0,3.6,0,7.2,0,10.8
	c-0.6,0-1.1,0-1.7,0c-0.1,0-0.3-0.2-0.4-0.4c-0.5-1.1-1-2.2-1.5-3.3c-0.8-1.6-1.6-3.2-2.3-4.8c0-0.1-0.1-0.1-0.2-0.3
	c0,0.3,0,0.5,0,0.6c0,2.5,0,5.1,0,7.6c0,0.4-0.1,0.6-0.5,0.5c-1,0-0.9,0.1-0.9-0.9c0-3.1,0-6.2,0-9.3c0-0.5,0.1-0.6,0.6-0.7
	c1-0.1,1.5,0.2,1.9,1.2c1.1,2.4,2.3,4.8,3.4,7.2c0,0.1,0.1,0.1,0.1,0.2C259.9,120.7,259.9,120.7,260,120.7z"/>
<path d="M335.1,117.5c0-0.9,0-1.7,0-2.6c0-1.8,1.5-3,3.2-2.9c0.8,0,1.6,0,2.3,0.1c1.3,0.2,2.1,1,2.3,2.3c0.1,1,0.1,2,0.1,3
	c0,1.1,0,2.1-0.1,3.2c-0.2,1.6-1,2.4-2.6,2.5c-1,0.1-1.9,0-2.9-0.1c-1.1-0.1-2.2-1.4-2.2-2.6C335.1,119.4,335.1,118.4,335.1,117.5
	L335.1,117.5z M336.5,117.5L336.5,117.5c0,0.9,0,1.8,0,2.7c0,1,0.5,1.5,1.4,1.6c0.7,0,1.4,0,2.1,0c0.9-0.1,1.5-0.5,1.5-1.3
	c0.1-2,0-3.9,0-5.9c0-0.6-0.4-1.1-1-1.2c-0.7-0.1-1.5-0.1-2.2-0.1c-1.2,0-1.7,0.5-1.7,1.7C336.5,115.8,336.5,116.6,336.5,117.5z"/>
<path d="M353.4,124.8c0.8,0,1.5,0,2.2,0c1,0,1.5-0.5,1.5-1.6c0-0.3,0-0.7,0-1.1c-0.2,0.1-0.3,0.1-0.4,0.2c-1,0.9-2.2,0.8-3.3,0.4
	c-1.1-0.4-1.5-1.3-1.5-2.4c0-1,0-1.9,0-2.9c0.1-1.4,1-2.2,2.4-2.3c1-0.1,1.9,0,2.7,0.7c0.1-0.3,0.1-0.6,0.3-0.7c0.3-0.1,0.6-0.1,1,0
	c0.1,0,0.2,0.3,0.2,0.5c0,1.4,0,2.8,0,4.2c0,1.2,0,2.4,0,3.6c-0.1,1.5-0.6,2.2-2.1,2.4c-0.8,0.1-1.7,0-2.6,0c-0.3,0-0.4-0.2-0.4-0.5
	C353.4,125.2,353.4,125,353.4,124.8z M353.3,119L353.3,119c0,0.5,0,1.1,0,1.6c0.1,0.6,0.4,1,1,1.1c0.5,0.1,1.1,0.1,1.6,0
	c0.6-0.1,1.1-0.6,1.2-1.2c0-1,0-2,0-3c0-0.7-0.5-1.2-1.2-1.3c-0.5-0.1-1.1,0-1.6,0c-0.6,0.1-1,0.4-1,1
	C353.2,117.9,353.3,118.5,353.3,119z"/>
<path d="M322.6,116.2c0.8-1,1.8-1.2,2.9-1.1c0.8,0.1,1.4,0.5,1.7,1.2c0.2,0.5,0.3,1.1,0.3,1.6c0,1.4,0,2.9,0,4.3
	c0,0.4-0.1,0.6-0.6,0.6c-1,0-0.9,0.1-0.9-0.9c0-1.3,0-2.6,0-3.9c0.1-1.6-0.6-2.2-2.4-1.7c-0.9,0.2-1.1,0.5-1.1,1.4
	c0.1,1.5,0,3,0,4.4c0,0.5-0.1,0.7-0.6,0.6c-0.1,0-0.2,0-0.3,0c-0.4,0.1-0.6-0.1-0.6-0.6c0-2,0-4,0-6c0-1.3,0-2.6,0-3.8
	c0-0.4,0.1-0.5,0.5-0.5c1,0,1-0.2,1,1C322.6,114,322.6,115,322.6,116.2z"/>
<path d="M395.9,122.9c-1.4,0.1-1.2,0.1-1.5-0.9c-0.9,1.3-2.1,1.2-3.4,0.9c-1.1-0.2-1.7-1.3-1.6-2.6c0.1-1.2,0.8-1.8,2-1.9
	c0.8,0,1.6,0,2.4,0c0.2,0,0.4,0,0.6,0c0-0.5-0.1-1-0.1-1.4c-0.1-0.4-0.4-0.6-0.8-0.6c-0.9-0.1-1.8-0.1-2.7,0.3
	c-0.4,0.2-0.6,0.1-0.8-0.3c-0.2-0.4-0.1-0.6,0.3-0.8c1.4-0.6,2.8-0.6,4.2-0.1c0.9,0.3,1.2,1.1,1.2,2c0,1.6,0,3.2,0,4.7
	C395.9,122.4,395.9,122.6,395.9,122.9z M394.4,119.4c-0.8,0-1.7,0-2.6,0c-0.8,0-1.1,0.4-1.1,1.2c0,0.8,0.3,1.2,1.1,1.2
	c0.3,0,0.5,0,0.8,0C394.1,121.8,394.7,120.9,394.4,119.4z"/>
<path d="M306,119.6c0,0.4,0,0.7,0,1c0.1,0.7,0.5,1.1,1.3,1.2c0.4,0,0.8,0.1,1.2,0c0.4-0.1,0.9-0.2,1.1-0.5c0.4-0.4,0.7-0.1,0.9,0.1
	c0.4,0.3,0,0.5-0.1,0.7c-0.6,0.7-1.3,1.1-2.3,1.1c-0.7,0-1.4,0-2.1-0.3c-1-0.5-1.4-1.3-1.5-2.3c-0.1-0.9,0-1.9,0-2.8
	c0-1.3,0.9-2.3,2.2-2.5c0.6-0.1,1.3-0.1,2,0c1.2,0.2,2.1,1.3,2.1,2.6c0,0.3,0,0.6,0,0.9c0,0.7-0.1,0.8-0.9,0.8c-1.1,0-2.2,0-3.4,0
	C306.5,119.6,306.3,119.6,306,119.6z M306,118.5c1.2,0,2.3,0,3.5,0c0-0.7,0.1-1.5-0.6-2c-0.7-0.4-1.6-0.4-2.3,0
	C305.9,117,306,117.7,306,118.5z"/>
<path d="M367,122.9c-1.3,0.1-1.3,0.1-1.3-0.9c-0.2,0.2-0.4,0.4-0.6,0.6c-1,0.6-2,0.5-3,0.3c-1-0.3-1.6-1.4-1.4-2.7
	c0.1-1,0.8-1.7,1.9-1.8c0.5,0,1.1,0,1.6,0s1,0,1.6,0c0-0.5,0-1-0.1-1.4c-0.1-0.3-0.4-0.5-0.7-0.6c-1-0.2-1.9-0.1-2.9,0.2
	c-0.4,0.2-0.6,0-0.7-0.4c-0.2-0.4-0.1-0.6,0.2-0.7c1.3-0.6,2.7-0.6,4-0.3c1,0.3,1.4,1.2,1.4,2.1C367,119.2,367,121,367,122.9z
	 M365.6,119.5c-1,0-1.9,0-2.8,0c-0.1,0-0.3,0.1-0.4,0.1c-0.5,0.1-0.5,0.5-0.5,0.9s0,0.9,0.5,1.1c1,0.3,1.9,0.3,2.8-0.2
	c0.3-0.2,0.4-0.6,0.5-1C365.7,120.2,365.6,119.8,365.6,119.5z"/>
<path d="M265,119.6c0,0.4,0,0.8,0,1.1c0.1,0.6,0.4,1,1.1,1s1.3,0,2-0.1c0.2,0,0.3-0.1,0.4-0.2c0.6-0.5,0.7-0.5,1.2,0.1
	c-0.5,0.6-1,1.3-1.8,1.4c-0.7,0.1-1.5,0.1-2.2,0c-1.2-0.2-2-1-2-2.2c-0.1-1.1-0.1-2.3,0-3.5c0.1-1.1,0.9-1.9,2-2
	c0.7-0.1,1.5-0.1,2.3,0c1.2,0.2,1.9,1.2,2,2.4c0,0.4,0,0.7,0,1.1c0,0.8-0.1,0.9-0.9,0.9c-1.1,0-2.3,0-3.4,0
	C265.5,119.6,265.3,119.6,265,119.6z M268.6,118.5c0-0.8,0.2-1.6-0.7-2c-0.8-0.3-1.7-0.3-2.4,0.2c-0.6,0.4-0.4,1.2-0.4,1.8
	C266.3,118.5,267.4,118.5,268.6,118.5z"/>
<path d="M414.2,119.1c0,0.4,0,0.9,0,1.3c0,1.5-0.8,2.3-2.3,2.6c-0.6,0.1-1.3,0.1-1.9,0c-1.2-0.1-2.3-1.4-2.3-2.6c0-0.8,0-1.7,0-2.5
	c0-1.3,1.2-2.6,2.6-2.7c1.1,0,2.1-0.1,3,0.6c0.6,0.4,0.8,1,0.9,1.6C414.2,117.9,414.1,118.5,414.2,119.1L414.2,119.1z M409.1,119
	L409.1,119c0,0.5,0,1,0,1.5c0,0.8,0.5,1.2,1.3,1.3c0.3,0,0.6,0,0.9,0c1,0,1.5-0.5,1.5-1.5c0-0.6,0-1.3,0-1.9c0.1-2-0.7-2.2-2.4-2.1
	c-0.8,0.1-1.2,0.5-1.3,1.4C409.1,118.1,409.1,118.6,409.1,119z"/>
<path d="M293.9,119.1c0,0.4,0,0.8,0,1.2c0,1.5-0.9,2.5-2.4,2.7c-0.6,0.1-1.3,0-1.9,0c-1.1-0.1-2-0.9-2.1-2.1s-0.1-2.5,0-3.7
	s1.1-2,2.3-2c0.8,0,1.5,0,2.3,0.1c1.1,0.3,1.7,1.1,1.8,2.3C293.9,118.1,293.9,118.6,293.9,119.1L293.9,119.1z M288.7,119L288.7,119
	c0,0.5,0,0.9,0,1.4c0,0.9,0.4,1.3,1.3,1.4c0.4,0,0.7,0,1.1,0c0.7,0,1.4-0.8,1.4-1.4c0-0.9,0-1.8,0-2.6c0-0.6-0.6-1.4-1.3-1.4
	c-0.5,0-1,0-1.4,0c-0.6,0.1-0.9,0.4-1,1C288.7,117.9,288.8,118.5,288.7,119z"/>
<path d="M277.1,121.9c-1.1,1.1-2.4,1.3-3.7,0.9c-0.9-0.3-1.2-1.1-1.2-1.9c-0.1-1.3,0-2.6-0.1-3.9c0-0.3,0-0.6,0-1
	c0-0.8,0.3-1.1,1.1-0.8c0.2,0.1,0.3,0.4,0.3,0.6c0,1.3,0,2.5,0,3.8c0,0.2,0,0.3,0,0.5c0,1.5,0.7,2,2.1,1.6c0.2-0.1,0.5-0.1,0.7-0.2
	c0.4-0.2,0.7-0.5,0.7-1.1c0-1.6,0-3.2,0-4.7c0-0.5,0.2-0.5,0.6-0.5c0.3,0,0.8-0.1,0.8,0.5c0,2.3,0,4.5,0,6.8c0,0.4-0.1,0.5-0.5,0.5
	c-0.1,0-0.2,0-0.3,0c-0.4,0.1-0.6-0.1-0.5-0.5C277.1,122.3,277.1,122.1,277.1,121.9z"/>
<path d="M370.8,116.2c0.8-1,1.7-1.2,2.8-1.1c1.2,0.1,1.9,0.7,2,1.9c0.1,1.9,0.1,3.7,0.1,5.6c0,0.1-0.2,0.3-0.3,0.3
	c-0.3,0-0.6,0-0.9,0c0-0.2-0.1-0.5-0.1-0.7c0-1.4-0.1-2.8,0-4.1c0.1-1.6-0.6-2.2-2.5-1.7c-0.8,0.2-1.1,0.6-1,1.5c0.1,1.5,0,3,0,4.5
	c0,0.4-0.1,0.6-0.5,0.5c-0.3,0-0.5,0-0.9,0c0-0.3,0-0.4,0-0.6c0-2.2,0-4.3,0-6.5c0-0.5,0.1-0.7,0.6-0.6c0.8,0,0.8,0,0.8,0.7
	C370.8,115.9,370.8,116,370.8,116.2z"/>
<path d="M417.7,116.1c1-1,2.1-1.2,3.4-0.9c0.8,0.2,1.2,0.8,1.4,1.5c0.1,0.3,0.1,0.7,0.1,1.1c0,1.5,0,3,0,4.5c0,0.4-0.1,0.6-0.5,0.6
	c-1.1,0-0.9,0.1-0.9-0.9c0-1.4,0-2.8,0-4.2c0-1.2-0.5-1.6-1.7-1.5c-0.3,0-0.6,0.1-0.8,0.2c-0.6,0.2-0.9,0.6-0.9,1.3
	c0,1.5,0,3.1,0,4.6c0,0.6-0.3,0.5-0.7,0.5c-0.4,0-0.7,0-0.6-0.6c0-2.2,0-4.4,0-6.6c0-0.4,0.1-0.6,0.6-0.6c0.4,0,0.9-0.1,0.8,0.6
	C417.7,115.8,417.7,116,417.7,116.1z"/>
<path d="M383.4,121.7c1.3,0,2.5,0,3.7,0c0.5,0,0.6,0.3,0.6,0.7c0,0.4-0.1,0.6-0.6,0.6c-1.6,0-3.2,0-4.7,0c-0.2,0-0.3,0-0.5,0
	c-0.1-0.5-0.1-1,0.2-1.4c1.2-1.5,2.3-3.1,3.5-4.6c0.1-0.1,0.2-0.3,0.3-0.5c-0.5,0-0.8,0-1.2,0c-0.7,0-1.3,0-2,0s-0.9-0.4-0.7-1
	c0-0.1,0.2-0.2,0.3-0.2c1.6,0,3.2,0,4.8,0c0.3,0,0.4,0.1,0.4,0.4c0,0.4,0,0.8-0.3,1.1c-1.1,1.4-2.2,2.9-3.3,4.3
	C383.9,121.2,383.7,121.4,383.4,121.7z"/>
<path d="M312.8,119c0-0.4,0-0.9,0-1.3c0-1.2,0.6-2.1,1.8-2.4c0.9-0.2,1.8-0.2,2.7-0.1c1,0.2,1.5,1,1.7,2c0.1,0.3,0,0.4-0.3,0.4
	c-0.5,0-0.9,0.1-1.1-0.6s-0.9-0.9-2.2-0.7c-0.7,0.1-1.1,0.5-1.2,1.1c0,0.3,0,0.6,0,0.9c0,0.7,0,1.3,0,2c0,0.9,0.5,1.3,1.4,1.4
	c0.3,0,0.6,0,0.9,0c0.5,0,1-0.2,1.3-0.6c0.4-0.5,0.7-0.1,1,0.1c0.4,0.3,0.1,0.5-0.1,0.7c-0.6,0.7-1.3,1.1-2.3,1.1
	c-0.8,0-1.6,0-2.4-0.4c-0.8-0.5-1.2-1.2-1.2-2C312.8,120,312.8,119.5,312.8,119L312.8,119z"/>
<path d="M299.9,113.3c0,1.5,0,2.9,0,4.3c0,1.6,0,3.2,0,4.8c0,0.4-0.1,0.6-0.5,0.5c-0.1,0-0.2,0-0.3,0c-0.4,0.1-0.5-0.1-0.5-0.5
	c0-2.8,0-5.6,0-8.5c0-0.2,0-0.4,0-0.6c-0.8,0-1.5,0-2.3,0c-0.5,0-0.5-0.3-0.6-0.7c0-0.4,0.1-0.6,0.6-0.6c1.9,0,3.9,0,5.8,0
	c0.5,0,0.6,0.1,0.6,0.6s-0.2,0.7-0.6,0.6C301.4,113.3,300.7,113.3,299.9,113.3z"/>
<path d="M398.9,116.5c-0.4-0.3-1,0.2-1-0.6c0-0.7,0-0.7,1-0.8c0.1-0.4,0-0.7,0.2-1.1c0.1-0.1,0.5-0.1,0.7-0.1c1-0.1,0.4,0.8,0.7,1.2
	c0.3,0,0.6,0,0.9,0c0.4,0,0.4,0.2,0.4,0.5s0.1,0.7-0.4,0.7c-0.3,0-0.7,0-1.1,0c0,1.1,0,2.1,0,3.1c0,0.4,0,0.8,0,1.2
	c0,0.7,0.2,1,1,1.1c0.7,0.1,0.4,0.5,0.4,0.8c0,0.4-0.2,0.4-0.5,0.4c-1.6,0-2.3-0.7-2.3-2.3C398.9,119.3,398.9,117.8,398.9,116.5z"/>
<path d="M346.7,116.2c0.9-1,1.9-1.1,3-1c0.2,0,0.7,0,0.6,0.5s-0.4,0.8-0.8,0.8c-0.7-0.1-1.4-0.1-2,0.2c-0.5,0.2-0.8,0.6-0.8,1.2
	c0,1.5,0,3,0,4.5c0,0.2,0,0.4,0,0.7c-0.4,0-0.7,0-1.1,0c-0.1,0-0.3-0.3-0.3-0.4c0-0.9,0-1.8,0-2.8c0-1.3,0-2.7,0-4
	c0-0.5,0.1-0.7,0.6-0.6c0.1,0,0.2,0,0.3,0c0.4-0.1,0.6,0.1,0.6,0.6C346.7,115.8,346.7,115.9,346.7,116.2z"/>
<path d="M282.2,116.2c0.9-1.1,2-1.2,3.1-1c0.2,0,0.6,0,0.5,0.5c-0.1,0.6-0.4,0.8-0.8,0.7c-0.9-0.2-1.7-0.2-2.4,0.4
	c-0.2,0.2-0.4,0.5-0.4,0.8c0,1.6,0,3.2,0,4.7c0,0.4-0.1,0.6-0.5,0.6c-1,0-0.9,0.1-0.9-0.9c0-2.1,0-4.2,0-6.3c0-0.4,0.1-0.6,0.6-0.5
	c0.1,0,0.2,0,0.3,0c0.4-0.1,0.6,0.1,0.6,0.6C282.2,115.8,282.2,115.9,282.2,116.2z"/>
<path d="M378.2,122.9c0-0.2,0-0.4,0-0.6c0-2.2,0-4.4,0-6.5c0-0.2,0.1-0.6,0.2-0.6c0.4,0,0.8,0,1.2,0c0,0,0.1,0.2,0.1,0.4
	c0,2.3,0,4.6,0,6.9c0,0.3-0.1,0.5-0.5,0.4C378.8,122.9,378.5,122.9,378.2,122.9z"/>
<path d="M404,119c0-1.1,0-2.2,0-3.4c0-0.4,0.1-0.5,0.5-0.5c0.1,0,0.1,0,0.2,0c0.7,0,0.7,0,0.7,0.7c0,2.1,0,4.2,0,6.3
	c0,0.7,0,0.7-0.7,0.7c-0.1,0-0.2,0-0.3,0c-0.4,0.1-0.5-0.1-0.5-0.5C404,121.3,404,120.2,404,119z"/>
<path d="M378.2,113.4c0-0.2,0-0.3,0-0.4c0-1-0.1-0.8,0.8-0.9c0.6,0,0.6,0.3,0.5,0.7c0,0.4,0,0.7-0.5,0.7
	C378.8,113.3,378.5,113.4,378.2,113.4z"/>
<path d="M405.3,112.1c0.2,1.2,0,1.5-1.3,1.2C404,111.9,403.9,112,405.3,112.1z"/>
<path class="st0" d="M169.7,112.8c0-0.7,0-1.4,0-2.1c-3.6-0.4-9.4,2.5-10.5,8.5c-2.2-0.7-3.8-2.9-3.6-5.5c0.2-2.7,2.2-5.1,5.8-5.3
	c0-0.7,0-1.4,0-2.2c-2.4,0-4.4,0.9-6,2.5c-1.7,1.7-2.2,3.8-2.2,6.1c-3.4-0.8-6-3.9-5.9-7.8c0.1-4,3.3-7.5,8.2-7.7c0-0.7,0-1.5,0-2.2
	c-3.8,0.1-6.7,1.7-9,4.7c-1.6-2.4-2-4.9-1-7.7c0.4-1,0.9-2,1.8-2.7c0.4-0.3,0.2-0.6,0-0.9c-1.4-1.9-1.6-3.9-0.8-6.1
	c0.5-1.6,1.7-2.7,3.1-3.6c1,3.6,3.2,5.7,7.1,5.9c0-0.8,0-1.5,0-2.3c-1.6-0.1-2.8-0.7-3.8-1.9c-0.7-0.9-1-1.9-0.9-3.1
	c0.2-1.9,2.1-4,4.6-4.1c2,0,4.7,1.4,4.9,4.5c0.8,0,1.5,0,2.3,0c0.2-3.1-3-7.3-8-6.7c0.1-2.4,2.5-5.2,6-5.6c-0.6,2.8-0.2,5.4,1.6,7.6
	c1.9,2.4,4.4,3.6,7.5,3.7c0-0.7,0-1.5,0-2.2c-0.6-0.1-1.2-0.1-1.7-0.3c-0.7-0.2-1.4-0.5-2-0.9c-3.8-2.3-4.2-7.4-1.3-10.3
	c2.1-2.1,5.1-2.8,8-1.6c1.2,0.5,2.1,1.3,2.9,2.2c1,1.2,1.4,2.7,1.4,4.2c0,16.9,0,33.8,0,50.7c0,1.1-0.2,2.1-0.6,3.1
	c-1.5,3.2-4.6,5.2-8.4,4.9c-2.1-0.2-3.9-1.1-5.5-2.6c-2.2-2.2-3-6.7-0.7-9.8c1.4-2,3.4-3.1,5.9-3.4c0.1,0,0.1,0,0.2,0
	S169.4,112.8,169.7,112.8z M173.3,89c0.8,0,1.5,0,2.3,0c0-0.7,0-1.5,0-2.2c-0.8,0-1.5,0-2.3,0C173.3,87.5,173.3,88.2,173.3,89z
	 M167.3,96.9c0-0.8,0-1.5,0-2.2c-0.8,0-1.6,0-2.3,0c0,0.8,0,1.5,0,2.2C165.8,96.9,166.5,96.9,167.3,96.9z M152,104.8
	c0.8,0,1.6,0,2.3,0c0-0.8,0-1.5,0-2.2c-0.8,0-1.5,0-2.3,0C152,103.4,152,104.1,152,104.8z M150.9,89c0,0.8,0,1.5,0,2.2
	c0.8,0,1.5,0,2.3,0c0-0.8,0-1.5,0-2.2C152.4,89,151.7,89,150.9,89z M172.1,119.6c0,0.8,0,1.5,0,2.2c0.8,0,1.5,0,2.3,0
	c0-0.8,0-1.5,0-2.2C173.7,119.6,172.9,119.6,172.1,119.6z M173.2,70.8c0-0.8,0-1.5,0-2.2c-0.8,0-1.5,0-2.3,0c0,0.8,0,1.5,0,2.2
	C171.7,70.8,172.4,70.8,173.2,70.8z"/>
<path class="st0" d="M213.4,95.4c0.1,3.3-0.3,6.6-1.4,9.8c-0.7,2.1-1.7,4.2-2.7,6.2c-0.7,1.4-1.7,2.7-2.6,4c-1.6,2-3.3,3.9-5.4,5.5
	c-1.7,1.3-3.4,2.5-5.2,3.5c-3.6,2-7.5,3.3-11.5,3.9c-2.2,0.3-4.2-1.2-4.1-3.6c0-19.3,0-38.6,0-57.8c0-2.3,1.7-3.8,4-3.5
	c2.8,0.3,5.5,1.1,8.1,2.2c1.9,0.8,3.8,1.7,5.5,2.9c1.9,1.3,3.8,2.6,5.4,4.3c1,1,1.9,2,2.8,3c1,1.2,1.8,2.6,2.7,3.8
	c1.3,1.8,2,3.8,2.7,5.8C212.8,88.9,213.3,91.6,213.4,95.4z M198,87.9c0,1.1,0,2.2,0,3.2c0,2.2-1.4,3.6-3.6,3.6c-3.7,0-7.4,0-11.1,0
	c-0.2,0-0.4,0-0.6,0c0,0.8,0,1.5,0,2.3c0.2,0,0.4,0,0.6,0c2.8,0,5.6,0,8.5,0c1.1,0,2.3,0.1,3.4-0.1c2.1-0.2,3.7-1.3,4.6-3.2
	c0.9-1.9,0.4-3.9,0.6-5.8C199.6,87.9,198.8,87.9,198,87.9z M204,102.6c0.6,0,1.1,0,1.7,0c0.7,0,0.7,0,0.7-0.7c0-5.6,0-11.1,0-16.7
	c0-0.1,0-0.3,0-0.4c-0.1-0.1-0.2-0.3-0.3-0.3c-0.7,0-1.4,0-2.1,0C204,90.5,204,96.5,204,102.6z M182.8,91.3c1.6,0,3.1,0,4.6,0
	c1.8,0,3.7-1.5,3.7-3.7c-0.1-2.4,0-4.8,0-7.1c0-0.2,0-0.3,0-0.5c-0.8,0-1.6,0-2.3,0c0,0.2,0,0.4,0,0.6c0,2.3,0,4.7,0,7
	c0,1-0.4,1.4-1.4,1.4c-1.3,0-2.6,0-3.9,0c-0.2,0-0.4,0-0.5,0C182.8,89.8,182.8,90.5,182.8,91.3z M182.8,102.6c1.5,0,2.9,0,4.4,0
	c1.1,0,1.5,0.4,1.5,1.5c0,2.3,0,4.7,0,7c0,0.2,0,0.4,0,0.5c0.8,0,1.6,0,2.4,0c0-2.7,0-5.4,0-8c0-1.6-1.5-3-2.9-3.2
	c-1-0.1-2.1-0.1-3.1-0.1c-0.7,0-1.5,0-2.2,0C182.8,101.1,182.8,101.8,182.8,102.6z M193.4,117.4c0.1-1.7-1.7-3.5-3.6-3.4
	c-1.9,0.1-3.5,1.4-3.5,3.4c0,2.1,1.7,3.3,3.5,3.4C191.6,120.8,193.4,119,193.4,117.4z M189.9,70.9c-1.9,0-3.6,1.4-3.6,3.4
	s1.6,3.3,3.4,3.4c1.9,0.1,3.6-1.7,3.7-3.3C193.4,72.6,191.6,70.7,189.9,70.9z M199.2,85.6c2,0,3.5-1.5,3.5-3.4s-1.5-3.4-3.5-3.4
	s-3.5,1.5-3.5,3.4S197.2,85.6,199.2,85.6z M198.1,100.4c0,3.8,0,7.5,0,11.3c0.8,0,1.5,0,2.3,0c0-3.8,0-7.5,0-11.3
	C199.6,100.4,198.8,100.4,198.1,100.4z M204,104.9c0,0.8,0,1.5,0,2.3c0.7,0,1.4,0,2,0c0.1,0,0.3-0.2,0.3-0.4c0-0.5,0-1,0-1.5
	c0-0.1-0.2-0.4-0.4-0.4C205.4,104.8,204.7,104.9,204,104.9z"/>
<path class="st0" d="M431.8,94.1c1.8-5.8,3.6-11.6,5.4-17.4h0.1c1.8,5.8,3.6,11.6,5.4,17.4C439,94.1,435.4,94.1,431.8,94.1z"/>
<path class="st0" d="M336.5,117.5c0-0.9,0-1.7,0-2.6c0-1.2,0.5-1.7,1.7-1.7c0.7,0,1.5,0,2.2,0.1s1,0.6,1,1.2c0,2,0,3.9,0,5.9
	c0,0.8-0.6,1.2-1.5,1.3c-0.7,0-1.4,0-2.1,0c-0.9-0.1-1.4-0.6-1.4-1.6C336.5,119.3,336.5,118.4,336.5,117.5L336.5,117.5z"/>
<path class="st0" d="M353.3,119c0-0.5,0-1.1,0-1.6c0-0.6,0.4-1,1-1c0.5-0.1,1.1-0.1,1.6,0c0.7,0.1,1.1,0.6,1.2,1.3c0,1,0,2,0,3
	c0,0.6-0.5,1.2-1.2,1.2c-0.5,0-1.1,0-1.6,0c-0.6-0.1-1-0.4-1-1.1C353.2,120.1,353.3,119.6,353.3,119L353.3,119z"/>
<path class="st0" d="M394.4,119.4c0.3,1.5-0.3,2.3-1.7,2.3c-0.3,0-0.5,0-0.8,0c-0.8,0-1.1-0.4-1.1-1.2c0-0.8,0.3-1.1,1.1-1.2
	C392.7,119.4,393.5,119.4,394.4,119.4z"/>
<path class="st0" d="M306,118.5c0-0.7-0.2-1.5,0.6-1.9c0.7-0.4,1.6-0.4,2.3,0c0.7,0.4,0.6,1.2,0.6,2
	C308.4,118.5,307.2,118.5,306,118.5z"/>
<path class="st0" d="M365.6,119.5c0,0.4,0.1,0.7,0,1c-0.1,0.4-0.3,0.8-0.5,1c-0.9,0.5-1.8,0.6-2.8,0.2c-0.5-0.2-0.5-0.6-0.5-1.1
	c0-0.4,0.1-0.8,0.5-0.9c0.1,0,0.3-0.1,0.4-0.1C363.7,119.5,364.7,119.5,365.6,119.5z"/>
<path class="st0" d="M268.6,118.5c-1.2,0-2.4,0-3.6,0c0-0.7-0.2-1.4,0.4-1.8c0.7-0.5,1.6-0.5,2.4-0.2
	C268.8,116.9,268.6,117.7,268.6,118.5z"/>
<path class="st0" d="M409.1,119c0-0.5,0-0.9,0-1.4c0-0.8,0.4-1.3,1.3-1.4c1.7-0.1,2.5,0.1,2.4,2.1c0,0.6,0,1.3,0,1.9
	c0,1-0.5,1.5-1.5,1.5c-0.3,0-0.6,0-0.9,0c-0.8,0-1.2-0.5-1.3-1.3C409.1,120,409.1,119.5,409.1,119L409.1,119z"/>
<path class="st0" d="M288.7,119c0-0.6,0-1.1,0.1-1.7s0.4-0.9,1-1c0.5-0.1,0.9,0,1.4,0c0.7,0,1.3,0.8,1.3,1.4c0,0.9,0,1.8,0,2.6
	c0,0.7-0.7,1.4-1.4,1.4c-0.4,0-0.7,0-1.1,0c-0.9-0.1-1.3-0.5-1.3-1.4C288.7,119.9,288.8,119.5,288.7,119L288.7,119z"/>
<path d="M173.3,89c0-0.8,0-1.5,0-2.2c0.8,0,1.5,0,2.3,0c0,0.7,0,1.5,0,2.2C174.8,89,174,89,173.3,89z"/>
<path d="M167.3,96.9c-0.8,0-1.5,0-2.3,0c0-0.7,0-1.4,0-2.2c0.8,0,1.5,0,2.3,0C167.3,95.4,167.3,96.2,167.3,96.9z"/>
<path d="M152,104.8c0-0.7,0-1.4,0-2.2c0.8,0,1.5,0,2.3,0c0,0.7,0,1.4,0,2.2C153.6,104.8,152.8,104.8,152,104.8z"/>
<path d="M150.9,89c0.8,0,1.5,0,2.3,0c0,0.7,0,1.5,0,2.2c-0.7,0-1.5,0-2.3,0C150.9,90.5,150.9,89.8,150.9,89z"/>
<path d="M172.1,119.6c0.8,0,1.5,0,2.3,0c0,0.7,0,1.5,0,2.2c-0.8,0-1.5,0-2.3,0C172.1,121.1,172.1,120.4,172.1,119.6z"/>
<path d="M173.2,70.8c-0.8,0-1.5,0-2.3,0c0-0.7,0-1.4,0-2.2c0.7,0,1.5,0,2.3,0C173.2,69.3,173.2,70.1,173.2,70.8z"/>
<path d="M198,87.9c0.8,0,1.6,0,2.4,0c-0.1,2,0.3,4-0.6,5.8c-0.9,1.9-2.5,2.9-4.6,3.2c-1.1,0.1-2.2,0.1-3.4,0.1c-2.8,0-5.6,0-8.5,0
	c-0.2,0-0.4,0-0.6,0c0-0.8,0-1.5,0-2.3c0.2,0,0.4,0,0.6,0c3.7,0,7.4,0,11.1,0c2.2,0,3.6-1.4,3.6-3.6C198,90,198,89,198,87.9z"/>
<path d="M204,102.6c0-6.1,0-12.1,0-18.1c0.7,0,1.4,0,2.1,0c0.1,0,0.2,0.2,0.3,0.3c0,0.1,0,0.3,0,0.4c0,5.6,0,11.1,0,16.7
	c0,0.7,0,0.7-0.7,0.7C205.1,102.6,204.6,102.6,204,102.6z"/>
<path d="M182.8,91.3c0-0.8,0-1.5,0-2.3c0.2,0,0.4,0,0.5,0c1.3,0,2.6,0,3.9,0c1,0,1.4-0.5,1.4-1.4c0-2.3,0-4.7,0-7c0-0.2,0-0.4,0-0.6
	c0.8,0,1.5,0,2.3,0c0,0.2,0,0.3,0,0.5c0,2.4-0.1,4.8,0,7.1c0.1,2.2-1.9,3.7-3.7,3.7C185.8,91.2,184.3,91.3,182.8,91.3z"/>
<path d="M182.8,102.6c0-0.8,0-1.5,0-2.3c0.8,0,1.5,0,2.2,0c1,0,2.1,0,3.1,0.1c1.3,0.1,2.9,1.6,2.9,3.2c0,2.7,0,5.3,0,8
	c-0.8,0-1.5,0-2.4,0c0-0.2,0-0.3,0-0.5c0-2.3,0-4.7,0-7c0-1.1-0.4-1.5-1.5-1.5C185.7,102.6,184.2,102.6,182.8,102.6z"/>
<path d="M193.4,117.4c0.1,1.7-1.7,3.5-3.6,3.4c-1.8-0.1-3.5-1.4-3.5-3.4s1.6-3.3,3.5-3.4C191.7,113.9,193.4,115.7,193.4,117.4z
	 M188.6,117.3c0,0.6,0.5,1.1,1.1,1.2c0.7,0,1.3-0.5,1.2-1.1c0-0.6-0.5-1.1-1.2-1.1C189.2,116.2,188.6,116.7,188.6,117.3z"/>
<path d="M189.9,70.9c1.8-0.1,3.6,1.7,3.5,3.5c-0.1,1.6-1.7,3.4-3.7,3.3c-1.8-0.1-3.4-1.4-3.4-3.4C186.3,72.2,188,70.8,189.9,70.9z
	 M189.7,75.4c0.7,0,1.3-0.5,1.3-1.1s-0.5-1.1-1.2-1.1c-0.6,0-1.1,0.5-1.1,1.1C188.6,74.9,189.1,75.4,189.7,75.4z"/>
<path d="M199.2,85.6c-2,0-3.5-1.5-3.5-3.4s1.5-3.4,3.5-3.4s3.5,1.5,3.5,3.4C202.8,84.1,201.2,85.6,199.2,85.6z M199.3,83.3
	c0.6,0,1.1-0.5,1.1-1.1s-0.5-1.1-1.1-1.1s-1.2,0.6-1.2,1.2C198.1,82.8,198.7,83.3,199.3,83.3z"/>
<path d="M198.1,100.4c0.8,0,1.5,0,2.3,0c0,3.8,0,7.5,0,11.3c-0.8,0-1.5,0-2.3,0C198.1,107.9,198.1,104.2,198.1,100.4z"/>
<path d="M204,104.9c0.7,0,1.3,0,2,0c0.1,0,0.3,0.2,0.4,0.4c0,0.5,0,1,0,1.5c0,0.1-0.2,0.3-0.3,0.4c-0.7,0-1.3,0-2,0
	C204,106.4,204,105.7,204,104.9z"/>
<path class="st0" d="M188.6,117.3c0-0.6,0.5-1.1,1.1-1.1c0.7,0,1.2,0.5,1.2,1.1s-0.5,1.2-1.2,1.1C189.1,118.5,188.6,118,188.6,117.3
	z"/>
<path class="st0" d="M189.7,75.4c-0.6,0-1.1-0.5-1.1-1.2c0-0.6,0.5-1.1,1.1-1.1c0.7,0,1.2,0.5,1.2,1.1
	C191,74.9,190.5,75.4,189.7,75.4z"/>
<path class="st0" d="M199.3,83.3c-0.6,0-1.2-0.5-1.2-1.1s0.6-1.2,1.2-1.2c0.6,0,1.1,0.5,1.1,1.1C200.4,82.8,199.9,83.3,199.3,83.3z"
	/>
</svg>
